<?xml version="1.0" encoding="UTF-8"?><svg id="wordmark_truewhite" xmlns="http://www.w3.org/2000/svg" viewBox="0 0 1921.23686 671.66166"><defs><style>.cls-1{fill:#fff;stroke-width:0px;}</style></defs><path class="cls-1" d="m951.59165,129.28396h57.8558v309.15313h-57.8558v-57.8558c-14.57436,40.63155-47.69791,62.27227-94.51253,62.27227-64.03886,0-98.04571-44.16473-98.04571-113.50336,0-68.45534,35.33179-112.62007,102.02053-112.62007,44.60638,0,76.40499,21.19907,90.5377,60.94733v-148.3935Zm1.76659,200.06624c0-40.18991-22.08237-61.83063-69.33863-61.83063s-67.13039,21.64072-67.13039,61.83063c0,41.0732,19.87413,62.27227,67.13039,62.27227s69.33863-21.19907,69.33863-62.27227Z"/><path class="cls-1" d="m387.01184,438.43709v-217.29049h57.8558v217.29049h-57.8558Zm-9.27459-275.13923c0-22.08237,13.69107-34.00684,37.98167-34.00684,24.73225,0,38.86497,11.92448,38.86497,34.00684,0,22.96566-14.13271,35.33179-38.86497,35.33179s-37.98167-12.36613-37.98167-35.33179Z"/><path class="cls-1" d="m723.1242,311.24266v127.19443h-57.8558v-112.17842c0-42.39814-19.87413-56.97251-54.32262-56.97251-38.42332,0-61.83063,18.99084-61.83063,66.68875v102.46218h-57.8558v-217.29049h57.8558v55.20592c12.80777-38.42332,43.72309-59.62239,87.44617-59.62239,56.53086,0,86.56288,30.91531,86.56288,94.51253Z"/><path class="cls-1" d="m1055.83916,438.43709V129.28396h57.8558v309.15313h-57.8558Z"/><path class="cls-1" d="m1150.88433,163.29081c0-22.08237,13.69107-34.00684,37.98167-34.00684,24.73225,0,38.86497,11.92448,38.86497,34.00684,0,22.96566-14.13271,35.33179-38.86497,35.33179s-37.98167-12.36613-37.98167-35.33179Zm9.27459,275.14629v-217.29049h57.8558v217.29049h-57.8558Z"/><path class="cls-1" d="m1496.1999,311.24266v127.19443h-57.8558v-112.17842c0-42.39814-19.87413-56.97251-54.32348-56.97251-38.42332,0-61.83063,18.99084-61.83063,66.68875v102.46218h-57.8558v-217.29049h57.8558v55.20592c12.80777-38.42332,43.72309-59.62239,87.44703-59.62239,56.53086,0,86.56288,30.91531,86.56288,94.51253Z"/><path class="cls-1" d="m340.13701,166.32334v-31.79095h-61.01778c-14.83746,0-26.86559,12.02813-26.86559,26.86559v30.99021h61.01778c14.83746,0,26.86559-11.2274,26.86559-26.06485Z"/><path class="cls-1" d="m252.2536,192.38819h-31.00359c-14.83746,0-26.86559,12.02813-26.86559,26.86559v37.48885h-30.99021c-14.83746,0-26.86559,11.36012-26.86559,26.19757v31.65788h57.8558v123.33896h31.79095c14.83746,0,26.07823-12.02813,26.07823-26.86559v-96.47337h61.01782c14.83746,0,26.86559-12.02813,26.86559-26.86559v-30.98987h-87.88341v-64.35444Z"/><path class="cls-1" d="m1724.66666,241.39706l.00069,30.03853c-14.13271-39.74826-45.93132-60.94733-90.5377-60.94733-66.68875,0-102.02053,44.16473-102.02053,112.62093,0,69.33863,34.00684,113.50336,98.04571,113.50336,46.78227,0,79.89137-21.61225,94.48104-62.18968l.03148-.00863v106.52032h-163.42753v54.25807h152.86638c42.59072,0,70.66163-28.07221,70.66163-70.17836v-250.11666h-33.60233c-14.63514,0-26.49917,11.8643-26.49884,26.49945Zm-67.57135,143.9844c-47.25626,0-67.13039-21.19907-67.13039-62.27227,0-40.18991,19.87413-61.83149,67.13039-61.83149s69.33863,21.64158,69.33863,61.83149c0,41.0732-22.08237,62.27227-69.33863,62.27227Z"/></svg>