<svg width="712" height="193" viewBox="0 0 712 193" fill="none" xmlns="http://www.w3.org/2000/svg">
<path d="M105.014 26H43.2715V61.2833H105.014V26Z" fill="#0ECA7B"/>
<path d="M43.2833 61.2898H8V96.573H43.2833V61.2898Z" fill="#0ECA7B"/>
<path d="M8 167.139H43.2833C43.2833 142.77 63.0218 123.032 87.3906 123.032H105.026V87.7483H87.3906C43.5346 87.7483 8 123.296 8 167.139Z" fill="#0ECA7B"/>
<path d="M277.248 67.4319H255.049V158.359H277.248V67.4319Z" fill="#090F17"/>
<path d="M277.248 34.8362H255.049V55.8183H277.248V34.8362Z" fill="#090F17"/>
<path d="M345.106 65.3275C333.12 65.3275 323.661 70.3812 316.729 80.4886V67.4442H295.23V158.371H317.43V107.437C317.43 90.1858 329.257 84.5236 337.697 84.5236C349.088 84.5236 354.79 90.2784 354.79 101.788V158.358H376.989V98.0839C376.989 72.8419 360.214 65.301 345.093 65.301L345.106 65.3275Z" fill="#090F17"/>
<path d="M438.609 104.619L427.152 102.86C415.815 100.888 411.991 97.5546 411.991 91.7601C411.991 84.7087 417.283 81.1896 427.854 81.1896C440.686 81.1896 446.6 85.7009 447.063 96.1655H468.032C467.212 75.6068 453.81 65.3274 427.854 65.3274C401.897 65.3274 390.136 77.2737 390.136 92.8184C390.136 108.363 400.058 117.015 419.916 120.309L430.314 122.069C444.324 124.53 448.108 127.85 448.108 134.055C448.108 141.344 442.115 144.983 430.129 144.983C417.058 144.983 411.065 140.974 409.861 129.478H388.191C389.369 150.393 403.233 160.845 429.785 160.845C457.673 160.845 470.135 149.004 470.135 132.295C470.135 115.587 457.885 108.125 438.596 104.632L438.609 104.619Z" fill="#090F17"/>
<path d="M523.122 65.3098C502.842 65.3098 478.182 77.6133 478.182 112.883C478.182 148.153 502.775 160.47 523.466 160.47C548.047 160.47 561.726 146.076 565.761 130.161H544.435C540.678 138.853 533.746 143.205 523.638 143.205C512.367 143.205 501.929 137.702 500.024 119.763H568.05V114.471C568.05 82.376 548.259 65.3098 523.109 65.3098H523.122ZM500.222 104.258C502.339 89.811 509.919 82.5876 522.95 82.5876C534.315 82.5876 543.761 89.3744 545.864 104.258H500.222Z" fill="#090F17"/>
<path d="M623.32 65.3098C598.038 65.3098 576.977 81.7013 576.977 112.883C576.977 147.743 602.152 160.47 623.32 160.47C648.84 160.47 669.491 143.946 669.491 112.883C669.491 81.8203 650.493 65.3098 623.32 65.3098ZM623.32 142.147C606.558 142.147 599.705 129.209 599.705 112.897C599.705 89.9565 612.194 83.646 623.32 83.646C640.068 83.646 646.935 96.7962 646.935 112.897C646.935 135.665 634.433 142.147 623.32 142.147Z" fill="#090F17"/>
<path d="M157.932 65.9257V158.308H181.348V112.057H236.872V91.0751H181.348V65.714C181.348 60.2502 185.78 55.8183 191.244 55.8183H241.754V34.8362H189.034C171.862 34.8362 157.932 48.7537 157.932 65.9257Z" fill="#090F17"/>
</svg>
