<svg width="758" height="163" viewBox="0 0 758 163" fill="none" xmlns="http://www.w3.org/2000/svg">
<g clip-path="url(#clip0_1050_1688)">
<path d="M111.18 0H40.4297V40.7538H111.18V0Z" fill="#0ECA7B"/>
<path d="M40.4309 40.75H0V81.5038H40.4309V40.75Z" fill="#0ECA7B"/>
<path d="M0 163.005H40.4309C40.4309 134.857 63.0492 112.059 90.9733 112.059H111.181V71.3047H90.9733C40.7189 71.32 0 112.379 0 163.005Z" fill="#0ECA7B"/>
<path d="M308.524 47.8594H283.086V152.884H308.524V47.8594Z" fill="#F6F6F6"/>
<path d="M308.524 10.2031H283.086V34.4384H308.524V10.2031Z" fill="#F6F6F6"/>
<path d="M386.285 45.4134C372.55 45.4134 361.711 51.2506 353.767 62.9251V47.8583H329.133V152.883H354.571V94.0521C354.571 85.7699 356.83 79.2908 361.332 74.6149C365.834 69.939 371.322 67.5858 377.795 67.5858C390.848 67.5858 397.382 74.2329 397.382 87.5272V152.868H422.82V83.2486C422.82 71.1768 419.56 61.8402 413.027 55.2542C406.493 48.6682 397.579 45.3828 386.27 45.3828L386.285 45.4134Z" fill="#F6F6F6"/>
<path d="M521.014 101.8C515.284 96.788 506.097 93.1206 493.454 90.8132L480.325 88.7809C474.125 87.696 469.683 86.1679 467 84.1967C464.302 82.2254 462.968 79.4902 462.968 75.945C462.968 67.8004 469.032 63.7357 481.144 63.7357C488.284 63.7357 493.666 65.0651 497.304 67.7087C500.943 70.3523 502.883 74.799 503.156 81.0335H527.184C526.244 57.2872 510.887 45.4141 481.144 45.4141C467.409 45.4141 456.782 48.2257 449.233 53.8643C441.699 59.5029 437.924 67.2656 437.924 77.1675C437.924 94.5417 449.294 105.116 472.048 108.921L483.964 110.953C491.635 112.313 496.956 114.009 499.912 116.042C502.868 118.074 504.354 120.993 504.354 124.798C504.354 133.217 497.486 137.42 483.752 137.42C476.081 137.42 470.457 136.06 466.894 133.355C463.331 130.635 461.209 126.02 460.527 119.511H435.695C437.045 143.669 452.932 155.741 483.357 155.741C498.032 155.741 509.402 152.899 517.482 147.199C525.562 141.5 529.594 133.355 529.594 122.781C529.594 113.826 526.729 106.843 521.014 101.815V101.8Z" fill="#F6F6F6"/>
<path d="M590.287 45.4141C574.945 45.4141 562.484 50.4414 552.933 60.4809C543.504 70.5204 538.805 83.8146 538.805 100.379C538.805 116.943 543.58 130.238 553.146 140.277C562.696 150.317 575.218 155.344 590.711 155.344C603.097 155.344 613.603 152.196 622.213 145.885C630.824 139.574 636.479 131.063 639.177 120.336H614.74C610.434 130.375 602.491 135.403 590.909 135.403C583.101 135.403 576.871 133.126 572.232 128.587C567.593 124.049 564.788 117.295 563.848 108.34H641.8V102.228C641.8 85.2663 637.161 71.5595 627.868 61.1074C618.575 50.6554 606.053 45.4293 590.302 45.4293L590.287 45.4141ZM564.03 90.4007C566.456 73.7141 575.142 65.3708 590.075 65.3708C597.336 65.3708 603.264 67.617 607.842 72.0943C612.42 76.5716 615.24 82.6839 616.316 90.4159H564.015L564.03 90.4007Z" fill="#F6F6F6"/>
<path d="M743.458 60.2826C733.771 50.3807 720.976 45.4297 705.089 45.4297C689.201 45.4297 676.407 50.4571 666.72 60.4965C656.896 70.3985 651.984 83.708 651.984 100.395C651.984 117.081 656.896 130.391 666.72 140.293C676.407 150.332 689.201 155.36 705.089 155.36C720.976 155.36 733.756 150.347 743.458 140.293C753.145 130.253 757.996 116.959 757.996 100.395C757.996 83.8303 753.145 70.1998 743.458 60.2979V60.2826ZM724.978 125.302C720.203 131.201 713.563 134.15 705.089 134.15C696.615 134.15 689.975 131.231 685.199 125.394C680.424 119.557 678.029 111.213 678.029 100.364C678.029 89.5147 680.424 81.1561 685.199 75.3342C689.975 69.4969 696.615 66.5783 705.089 66.5783C713.563 66.5783 720.203 69.5275 724.978 75.4258C729.754 81.3242 732.149 89.637 732.149 100.364C732.149 111.091 729.754 119.389 724.978 125.302Z" fill="#F6F6F6"/>
<path d="M171.805 46.1129V152.819H198.637V99.397H262.263V75.1617H198.637V45.8684C198.637 39.5575 203.716 34.4384 209.977 34.4384H267.857V10.2031H207.445C187.768 10.2031 171.805 26.2785 171.805 46.1129Z" fill="#F6F6F6"/>
</g>
<defs>
<clipPath id="clip0_1050_1688">
<rect width="758" height="163" fill="white"/>
</clipPath>
</defs>
</svg>
