<svg width="1018" height="631" viewBox="0 0 1018 631" fill="none" xmlns="http://www.w3.org/2000/svg">
<path d="M243.744 158.293V215.646H215.068V244.322H157.715V215.646H129.039V158.293H157.715V129.617H215.068V158.293H243.744Z" fill="#0ECA7B"/>
<path d="M28.6719 602.188V630.864H57.3481H86.0244V602.188H57.3481H28.6719Z" fill="#F6F6F6"/>
<path d="M28.6763 544.828H0V573.504V602.181H28.6763V573.504V544.828Z" fill="#F6F6F6"/>
<path d="M86.0244 544.833V516.156H57.3481H28.6719V544.833H57.3481H86.0244Z" fill="#F6F6F6"/>
<path d="M86.0234 573.504V602.181H114.7V573.504V544.828H86.0234V573.504Z" fill="#F6F6F6"/>
<path d="M186.392 516.156C154.721 516.156 129.039 541.829 129.039 573.509C129.039 605.189 154.712 630.861 186.392 630.861C218.071 630.861 243.744 605.189 243.744 573.509C243.744 541.829 218.071 516.156 186.392 516.156ZM186.392 602.185C170.552 602.185 157.715 589.349 157.715 573.509C157.715 557.669 170.552 544.833 186.392 544.833C202.231 544.833 215.068 557.669 215.068 573.509C215.068 589.349 202.231 602.185 186.392 602.185Z" fill="#F6F6F6"/>
<path d="M28.6719 344.109V372.786H57.3481H86.0244V344.109H57.3481H28.6719Z" fill="#F6F6F6"/>
<path d="M28.6763 286.75H0V315.426V344.103H28.6763V315.426V286.75Z" fill="#F6F6F6"/>
<path d="M86.0244 286.754V258.078H57.3481H28.6719V286.754H57.3481H86.0244Z" fill="#F6F6F6"/>
<path d="M86.0234 315.426V344.103H114.7V315.426V286.75H86.0234V315.426Z" fill="#F6F6F6"/>
<path d="M186.392 372.783C218.062 372.783 243.744 347.11 243.744 315.431C243.744 283.751 218.071 258.078 186.392 258.078C154.712 258.078 129.039 283.751 129.039 315.431C129.039 347.11 154.712 372.783 186.392 372.783ZM186.392 286.754C202.231 286.754 215.068 299.591 215.068 315.431C215.068 331.271 202.231 344.107 186.392 344.107C170.552 344.107 157.715 331.271 157.715 315.431C157.715 299.591 170.552 286.754 186.392 286.754Z" fill="#F6F6F6"/>
<path d="M57.3525 244.322C89.0234 244.322 114.705 218.649 114.705 186.97C114.705 155.29 89.0323 129.617 57.3525 129.617C25.6728 129.617 0 155.299 0 186.979C0 218.658 25.6728 244.331 57.3525 244.331V244.322ZM57.3525 158.302C73.1924 158.302 86.0288 171.139 86.0288 186.979C86.0288 202.819 73.1924 215.655 57.3525 215.655C41.5126 215.655 28.6763 202.819 28.6763 186.979C28.6763 171.139 41.5126 158.302 57.3525 158.302Z" fill="#F6F6F6"/>
<path d="M86.0244 28.6763V0H57.3481H28.6719V28.6763H57.3481H86.0244Z" fill="#F6F6F6"/>
<path d="M86.0234 86.0244H114.7V57.3481V28.6719H86.0234V57.3481V86.0244Z" fill="#F6F6F6"/>
<path d="M28.6719 86.0312V114.708H57.3481H86.0244V86.0312H57.3481H28.6719Z" fill="#F6F6F6"/>
<path d="M28.6763 57.3481V28.6719H0V57.3481V86.0244H28.6763V57.3481Z" fill="#F6F6F6"/>
<path d="M215.062 415.731V387.055H186.386H157.719V415.731H186.386H215.062Z" fill="#F6F6F6"/>
<path d="M215.062 415.734V444.402V473.078H243.739V444.402V415.734H215.062Z" fill="#F6F6F6"/>
<path d="M157.719 473.078V501.754H186.386H215.062V473.078H186.386H157.719Z" fill="#F6F6F6"/>
<path d="M157.715 415.734H129.039V444.402V473.078H157.715V444.402V415.734Z" fill="#F6F6F6"/>
<path d="M114.705 443.923C114.705 475.598 89.0275 501.275 57.3525 501.275C25.6776 501.275 -3.89151e-06 475.598 -2.50696e-06 443.923C-1.1224e-06 412.248 25.6776 386.57 57.3525 386.57C89.0275 386.57 114.705 412.248 114.705 443.923Z" fill="#0ECA7B"/>
<path d="M186.392 114.705C218.062 114.705 243.744 89.0323 243.744 57.3525C243.744 25.6728 218.071 0 186.392 0C154.712 0 129.039 25.6728 129.039 57.3525C129.039 89.0323 154.712 114.705 186.392 114.705ZM186.392 28.6763C202.231 28.6763 215.068 41.5126 215.068 57.3525C215.068 73.1924 202.231 86.0288 186.392 86.0288C170.552 86.0288 157.715 73.1924 157.715 57.3525C157.715 41.5126 170.552 28.6763 186.392 28.6763Z" fill="#F6F6F6"/>
<path d="M258.092 602.175L258.092 544.823L286.768 544.823L286.768 516.146L344.121 516.146L344.121 544.823L372.797 544.823L372.797 602.175L344.121 602.175L344.121 630.852L286.768 630.852L286.768 602.175L258.092 602.175Z" fill="#0ECA7B"/>
<path d="M473.148 415.789L473.148 387.113L444.472 387.113L415.796 387.113L415.796 415.789L444.472 415.789L473.148 415.789Z" fill="#F6F6F6"/>
<path d="M473.152 473.141L501.828 473.141L501.828 444.464L501.828 415.788L473.152 415.788L473.152 444.464L473.152 473.141Z" fill="#F6F6F6"/>
<path d="M415.796 473.144L415.796 501.82L444.472 501.82L473.148 501.82L473.148 473.144L444.472 473.144L415.796 473.144Z" fill="#F6F6F6"/>
<path d="M415.805 444.464L415.805 415.788L387.128 415.788L387.128 444.464L387.128 473.141L415.805 473.141L415.805 444.464Z" fill="#F6F6F6"/>
<path d="M315.429 501.82C347.1 501.82 372.781 476.148 372.781 444.468C372.781 412.788 347.108 387.115 315.429 387.115C283.749 387.115 258.076 412.788 258.076 444.468C258.076 476.148 283.749 501.82 315.429 501.82ZM315.429 415.792C331.269 415.792 344.105 428.628 344.105 444.468C344.105 460.308 331.269 473.144 315.429 473.144C299.589 473.144 286.752 460.308 286.752 444.468C286.752 428.628 299.589 415.792 315.429 415.792Z" fill="#F6F6F6"/>
<path d="M286.75 344.109V372.786H315.426H344.103V344.109H315.426H286.75Z" fill="#F6F6F6"/>
<path d="M286.754 286.75H258.078V315.426V344.103H286.754V315.426V286.75Z" fill="#F6F6F6"/>
<path d="M344.103 286.754V258.078H315.426H286.75V286.754H315.426H344.103Z" fill="#F6F6F6"/>
<path d="M344.109 315.426V344.103H372.786V315.426V286.75H344.109V315.426Z" fill="#F6F6F6"/>
<path d="M444.47 372.783C476.141 372.783 501.822 347.11 501.822 315.431C501.822 283.751 476.149 258.078 444.47 258.078C412.79 258.078 387.117 283.751 387.117 315.431C387.117 347.11 412.79 372.783 444.47 372.783ZM444.47 286.754C460.31 286.754 473.146 299.591 473.146 315.431C473.146 331.271 460.31 344.107 444.47 344.107C428.63 344.107 415.793 331.271 415.793 315.431C415.793 299.591 428.63 286.754 444.47 286.754Z" fill="#F6F6F6"/>
<path d="M444.476 516.154C412.805 516.154 387.123 541.827 387.123 573.507C387.123 605.187 412.796 630.859 444.476 630.859C476.155 630.859 501.828 605.187 501.828 573.507C501.828 541.827 476.155 516.154 444.476 516.154ZM444.476 602.174C428.636 602.174 415.799 589.338 415.799 573.498C415.799 557.658 428.636 544.822 444.476 544.822C460.315 544.822 473.152 557.658 473.152 573.498C473.152 589.338 460.315 602.174 444.476 602.174Z" fill="#F6F6F6"/>
<path d="M344.103 28.6763V0H315.426H286.75V28.6763H315.426H344.103Z" fill="#F6F6F6"/>
<path d="M344.109 86.0244H372.786V57.3481V28.6719H344.109V57.3481V86.0244Z" fill="#F6F6F6"/>
<path d="M286.75 86.0312V114.708H315.426H344.103V86.0312H315.426H286.75Z" fill="#F6F6F6"/>
<path d="M286.754 57.3481V28.6719H258.078V57.3481V86.0244H286.754V57.3481Z" fill="#F6F6F6"/>
<path d="M473.149 157.715V129.039H444.473H415.797V157.715H444.473H473.149Z" fill="#F6F6F6"/>
<path d="M473.148 157.719V186.386V215.062H501.825V186.386V157.719H473.148Z" fill="#F6F6F6"/>
<path d="M415.797 215.062V243.739H444.473H473.149V215.062H444.473H415.797Z" fill="#F6F6F6"/>
<path d="M415.793 157.719H387.117V186.386V215.062H415.793V186.386V157.719Z" fill="#F6F6F6"/>
<path d="M387.123 57.3525C387.123 89.0275 412.801 114.705 444.476 114.705C476.151 114.705 501.828 89.0275 501.828 57.3525C501.828 25.6776 476.151 -1.1224e-06 444.476 -2.50696e-06C412.801 -3.89151e-06 387.123 25.6776 387.123 57.3525Z" fill="#0ECA7B"/>
<path d="M315.444 128.725C283.774 128.725 258.092 154.397 258.092 186.077C258.092 217.757 283.774 243.43 315.444 243.43C347.115 243.43 372.797 217.757 372.797 186.077C372.797 154.397 347.124 128.725 315.444 128.725ZM315.444 214.753C299.604 214.753 286.768 201.917 286.768 186.077C286.768 170.237 299.604 157.401 315.444 157.401C331.284 157.401 344.121 170.237 344.121 186.077C344.121 201.917 331.284 214.753 315.444 214.753Z" fill="#F6F6F6"/>
<path d="M759.518 158.293V215.646H730.841V244.322H673.489V215.646H644.812V158.293H673.489V129.617H730.841V158.293H759.518Z" fill="#0ECA7B"/>
<path d="M544.453 602.188V630.864H573.129H601.806V602.188H573.129H544.453Z" fill="#F6F6F6"/>
<path d="M544.458 544.828H515.781V573.504V602.181H544.458V573.504V544.828Z" fill="#F6F6F6"/>
<path d="M601.806 544.833V516.156H573.129H544.453V544.833H573.129H601.806Z" fill="#F6F6F6"/>
<path d="M601.805 573.504V602.181H630.481V573.504V544.828H601.805V573.504Z" fill="#F6F6F6"/>
<path d="M702.165 516.156C670.494 516.156 644.812 541.829 644.812 573.509C644.812 605.189 670.485 630.861 702.165 630.861C733.845 630.861 759.518 605.189 759.518 573.509C759.518 541.829 733.845 516.156 702.165 516.156ZM702.165 602.185C686.325 602.185 673.489 589.349 673.489 573.509C673.489 557.669 686.325 544.833 702.165 544.833C718.005 544.833 730.841 557.669 730.841 573.509C730.841 589.349 718.005 602.185 702.165 602.185Z" fill="#F6F6F6"/>
<path d="M544.453 344.109V372.786H573.129H601.806V344.109H573.129H544.453Z" fill="#F6F6F6"/>
<path d="M544.458 286.75H515.781V315.426V344.103H544.458V315.426V286.75Z" fill="#F6F6F6"/>
<path d="M601.806 286.754V258.078H573.129H544.453V286.754H573.129H601.806Z" fill="#F6F6F6"/>
<path d="M601.805 315.426V344.103H630.481V315.426V286.75H601.805V315.426Z" fill="#F6F6F6"/>
<path d="M702.165 372.783C733.836 372.783 759.518 347.11 759.518 315.431C759.518 283.751 733.845 258.078 702.165 258.078C670.485 258.078 644.812 283.751 644.812 315.431C644.812 347.11 670.485 372.783 702.165 372.783ZM702.165 286.754C718.005 286.754 730.841 299.591 730.841 315.431C730.841 331.271 718.005 344.107 702.165 344.107C686.325 344.107 673.489 331.271 673.489 315.431C673.489 299.591 686.325 286.754 702.165 286.754Z" fill="#F6F6F6"/>
<path d="M573.134 244.322C604.805 244.322 630.486 218.649 630.486 186.97C630.486 155.29 604.814 129.617 573.134 129.617C541.454 129.617 515.781 155.299 515.781 186.979C515.781 218.658 541.454 244.331 573.134 244.331V244.322ZM573.134 158.302C588.974 158.302 601.81 171.139 601.81 186.979C601.81 202.819 588.974 215.655 573.134 215.655C557.294 215.655 544.458 202.819 544.458 186.979C544.458 171.139 557.294 158.302 573.134 158.302Z" fill="#F6F6F6"/>
<path d="M601.806 28.6763V0H573.129H544.453V28.6763H573.129H601.806Z" fill="#F6F6F6"/>
<path d="M601.805 86.0244H630.481V57.3481V28.6719H601.805V57.3481V86.0244Z" fill="#F6F6F6"/>
<path d="M544.453 86.0312V114.708H573.129H601.806V86.0312H573.129H544.453Z" fill="#F6F6F6"/>
<path d="M544.458 57.3481V28.6719H515.781V57.3481V86.0244H544.458V57.3481Z" fill="#F6F6F6"/>
<path d="M730.844 415.731V387.055H702.167H673.5V415.731H702.167H730.844Z" fill="#F6F6F6"/>
<path d="M730.844 415.734V444.402V473.078H759.52V444.402V415.734H730.844Z" fill="#F6F6F6"/>
<path d="M673.5 473.078V501.754H702.167H730.844V473.078H702.167H673.5Z" fill="#F6F6F6"/>
<path d="M673.497 415.734H644.82V444.402V473.078H673.497V444.402V415.734Z" fill="#F6F6F6"/>
<path d="M630.486 443.923C630.486 475.598 604.809 501.275 573.134 501.275C541.459 501.275 515.781 475.598 515.781 443.923C515.781 412.248 541.459 386.57 573.134 386.57C604.809 386.57 630.486 412.248 630.486 443.923Z" fill="#0ECA7B"/>
<path d="M702.165 114.705C733.836 114.705 759.518 89.0323 759.518 57.3525C759.518 25.6728 733.845 0 702.165 0C670.485 0 644.812 25.6728 644.812 57.3525C644.812 89.0323 670.485 114.705 702.165 114.705ZM702.165 28.6763C718.005 28.6763 730.841 41.5126 730.841 57.3525C730.841 73.1924 718.005 86.0288 702.165 86.0288C686.325 86.0288 673.489 73.1924 673.489 57.3525C673.489 41.5126 686.325 28.6763 702.165 28.6763Z" fill="#F6F6F6"/>
<path d="M773.873 602.175L773.873 544.823L802.549 544.823L802.549 516.146L859.902 516.146L859.902 544.823L888.578 544.823L888.578 602.175L859.902 602.175L859.902 630.852L802.549 630.852L802.549 602.175L773.873 602.175Z" fill="#0ECA7B"/>
<path d="M988.93 415.789L988.93 387.113L960.253 387.113L931.577 387.113L931.577 415.789L960.253 415.789L988.93 415.789Z" fill="#F6F6F6"/>
<path d="M988.933 473.141L1017.61 473.141L1017.61 444.464L1017.61 415.788L988.933 415.788L988.933 444.464L988.933 473.141Z" fill="#F6F6F6"/>
<path d="M931.577 473.144L931.577 501.82L960.253 501.82L988.93 501.82L988.93 473.144L960.253 473.144L931.577 473.144Z" fill="#F6F6F6"/>
<path d="M931.578 444.464L931.578 415.788L902.902 415.788L902.902 444.464L902.902 473.141L931.578 473.141L931.578 444.464Z" fill="#F6F6F6"/>
<path d="M831.21 501.82C862.881 501.82 888.563 476.148 888.563 444.468C888.563 412.788 862.89 387.115 831.21 387.115C799.53 387.115 773.857 412.788 773.857 444.468C773.857 476.148 799.53 501.82 831.21 501.82ZM831.21 415.792C847.05 415.792 859.886 428.628 859.886 444.468C859.886 460.308 847.05 473.144 831.21 473.144C815.37 473.144 802.534 460.308 802.534 444.468C802.534 428.628 815.37 415.792 831.21 415.792Z" fill="#F6F6F6"/>
<path d="M802.531 344.109V372.786H831.208H859.884V344.109H831.208H802.531Z" fill="#F6F6F6"/>
<path d="M802.536 286.75H773.859V315.426V344.103H802.536V315.426V286.75Z" fill="#F6F6F6"/>
<path d="M859.884 286.754V258.078H831.208H802.531V286.754H831.208H859.884Z" fill="#F6F6F6"/>
<path d="M859.891 315.426V344.103H888.567V315.426V286.75H859.891V315.426Z" fill="#F6F6F6"/>
<path d="M960.251 372.783C991.922 372.783 1017.6 347.11 1017.6 315.431C1017.6 283.751 991.931 258.078 960.251 258.078C928.571 258.078 902.898 283.751 902.898 315.431C902.898 347.11 928.571 372.783 960.251 372.783ZM960.251 286.754C976.091 286.754 988.927 299.591 988.927 315.431C988.927 331.271 976.091 344.107 960.251 344.107C944.411 344.107 931.575 331.271 931.575 315.431C931.575 299.591 944.411 286.754 960.251 286.754Z" fill="#F6F6F6"/>
<path d="M960.257 516.154C928.586 516.154 902.904 541.827 902.904 573.507C902.904 605.187 928.577 630.859 960.257 630.859C991.937 630.859 1017.61 605.187 1017.61 573.507C1017.61 541.827 991.937 516.154 960.257 516.154ZM960.257 602.174C944.417 602.174 931.581 589.338 931.581 573.498C931.581 557.658 944.417 544.822 960.257 544.822C976.097 544.822 988.933 557.658 988.933 573.498C988.933 589.338 976.097 602.174 960.257 602.174Z" fill="#F6F6F6"/>
<path d="M859.884 28.6763V0H831.208H802.531V28.6763H831.208H859.884Z" fill="#F6F6F6"/>
<path d="M859.891 86.0244H888.567V57.3481V28.6719H859.891V57.3481V86.0244Z" fill="#F6F6F6"/>
<path d="M802.531 86.0312V114.708H831.208H859.884V86.0312H831.208H802.531Z" fill="#F6F6F6"/>
<path d="M802.536 57.3481V28.6719H773.859V57.3481V86.0244H802.536V57.3481Z" fill="#F6F6F6"/>
<path d="M988.931 157.715V129.039H960.254H931.578V157.715H960.254H988.931Z" fill="#F6F6F6"/>
<path d="M988.93 157.719V186.386V215.062H1017.61V186.386V157.719H988.93Z" fill="#F6F6F6"/>
<path d="M931.578 215.062V243.739H960.254H988.931V215.062H960.254H931.578Z" fill="#F6F6F6"/>
<path d="M931.575 157.719H902.898V186.386V215.062H931.575V186.386V157.719Z" fill="#F6F6F6"/>
<path d="M902.904 57.3525C902.904 89.0275 928.582 114.705 960.257 114.705C991.932 114.705 1017.61 89.0275 1017.61 57.3525C1017.61 25.6776 991.932 -1.1224e-06 960.257 -2.50696e-06C928.582 -3.89151e-06 902.904 25.6776 902.904 57.3525Z" fill="#0ECA7B"/>
<path d="M831.226 128.725C799.555 128.725 773.873 154.397 773.873 186.077C773.873 217.757 799.555 243.43 831.226 243.43C862.896 243.43 888.578 217.757 888.578 186.077C888.578 154.397 862.905 128.725 831.226 128.725ZM831.226 214.753C815.386 214.753 802.549 201.917 802.549 186.077C802.549 170.237 815.386 157.401 831.226 157.401C847.065 157.401 859.902 170.237 859.902 186.077C859.902 201.917 847.065 214.753 831.226 214.753Z" fill="#F6F6F6"/>
</svg>
