<svg width="112" height="18" viewBox="0 0 112 18" fill="none" xmlns="http://www.w3.org/2000/svg">
<path d="M3.90039 8.4H2.40039C2.60039 8.8 3.20039 9.7 3.90039 10.7V8.4Z" fill="white"/>
<path d="M2.2002 9.2C2.2002 9.9 2.2002 10.6 2.6002 11.3H3.7002C3.1002 10.5 2.6002 9.8 2.2002 9.2Z" fill="white"/>
<path d="M5.80039 13.4C5.20039 12.9 4.70039 12.3 4.20039 11.8H2.90039C3.20039 12.5 3.60039 13.2 4.20039 13.7H6.40039C6.30039 13.7 6.10039 13.5 6.00039 13.3H5.80039V13.4Z" fill="white"/>
<path d="M6.1 13C6.3 13.2 6.5 13.3 6.7 13.5V9.5C6 9.1 5.3 8.8 4.5 8.6V11.5C5 12.1 5.5 12.6 6.1 13.1V13Z" fill="white"/>
<path d="M8.09961 14.8C7.89961 14.8 7.49961 14.6 7.09961 14.3H4.59961C5.59961 15.2 6.79961 15.7 7.99961 16V14.8H8.09961Z" fill="white"/>
<path d="M8.9002 11.6C8.9002 11.6 8.8002 11.4 8.7002 11.3C8.5002 11 8.2002 10.6 7.9002 10.4C7.7002 10.2 7.5002 10 7.2002 9.8V13.8C7.5002 14 7.8002 14.1 8.0002 14.2C8.1002 13.3 8.4002 12.5 8.8002 11.7L8.9002 11.6Z" fill="white"/>
<path d="M8.7 10.4C8.9 10.6 9.1 10.9 9.3 11.2C9.5 11 9.6 10.7 9.8 10.5V5.8H11.1C11.6 5.8 12 5.4 12 4.9V4.6H7.4C6.9 4.6 6.5 5 6.5 5.5V5.8H8.7V10.4Z" fill="white"/>
<path d="M11 14.2C11.5 13.8 12 13.4 12.5 12.9C13 12.4 13.1 12.3 13.3 12V8.7C12.5 9 11.7 9.4 11 10V14.2Z" fill="white"/>
<path d="M12.9 13.3C12.4 13.8 11.9 14.2 11.5 14.6H13.7C13.9 14.4 14.2 14.2 14.4 14C14.9 13.5 15.3 13 15.6 12.4H13.8C13.5 12.7 13.3 13 13 13.3H12.9Z" fill="white"/>
<path d="M10.1004 15.6C9.80039 15.8 9.60039 15.9 9.40039 16H10.2004C11.1004 16 12.0004 15.6 12.8004 15.1H10.8004C10.6004 15.3 10.3004 15.4 10.1004 15.6Z" fill="white"/>
<path d="M10.5 14.6V10.5C10.3 10.8 10 11 9.9 11.3C9.9 11.3 9.8 11.5 9.7 11.6C9.6 11.8 9.5 11.9 9.4 12.1C8.8 13.2 8.5 14.5 8.6 15.8C8.9 15.6 9.4 15.4 10 15C10.2 15 10.3 14.8 10.5 14.6Z" fill="white"/>
<path d="M14.2002 11.9H15.7002C16.1002 11 16.3002 10 16.3002 9C15.9002 9.6 15.2002 10.7 14.2002 11.9Z" fill="white"/>
<path d="M13.9004 8.5V11.4C15.1004 10 15.8004 8.8 16.1004 8.3C15.3004 8.3 14.6004 8.3 13.9004 8.5Z" fill="white"/>
<path d="M9.3 0.700001C4.7 0.700001 1 4.4 1 9C1 13.6 4.7 17.3 9.3 17.3C13.9 17.3 17.6 13.6 17.6 9C17.6 4.4 13.9 0.700001 9.3 0.700001ZM9.3 16.7C5 16.7 1.6 13.2 1.6 9C1.6 4.8 5.1 1.3 9.3 1.3C13.5 1.3 17 4.8 17 9C17 13.2 13.5 16.7 9.3 16.7Z" fill="white"/>
<path d="M27.7002 6.4H25.5002V13.1H23.9002V6.4H21.7002V4.8H27.8002V6.4H27.7002Z" fill="white"/>
<path d="M33.2004 10.3H32.0004V13.2H30.4004V5H33.7004C35.2004 5 36.4004 6.2 36.4004 7.7C36.4004 9.2 35.8004 9.7 34.8004 10.1L36.6004 13.2H34.8004L33.1004 10.3H33.2004ZM31.9004 8.8H33.6004C34.2004 8.8 34.7004 8.3 34.7004 7.6C34.7004 6.9 34.2004 6.4 33.6004 6.4H31.9004V8.8Z" fill="white"/>
<path d="M39.2006 10.4V4.9H40.8006V10.3C40.8006 11.1 41.2006 11.7 42.3006 11.7C43.4006 11.7 43.8006 11.1 43.8006 10.3V4.9H45.4006V10.4C45.4006 12.2 44.1006 13.3 42.2006 13.3C40.3006 13.3 39.1006 12.2 39.1006 10.4H39.2006Z" fill="white"/>
<path d="M54.0004 11.6V13.2H48.9004V5H53.9004V6.6H50.5004V8.4H53.6004V9.9H50.5004V11.7H54.0004V11.6Z" fill="white"/>
<path d="M67.2004 4.9V13.1H66.0004L62.5004 8.1V13.1H60.9004V4.9H62.1004L65.6004 9.9V4.9H67.2004Z" fill="white"/>
<path d="M75.2006 11.6H71.9006L71.4006 13.1H69.6006L72.5006 4.9H74.5006L77.4006 13.1H75.6006L75.1006 11.6H75.2006ZM74.7006 10.1L73.6006 6.7L72.5006 10.1H74.8006H74.7006Z" fill="white"/>
<path d="M84.7002 6.4H82.5002V13.1H80.9002V6.4H78.7002V4.8H84.8002V6.4H84.7002Z" fill="white"/>
<path d="M87.2006 10.4V4.9H88.8006V10.3C88.8006 11.1 89.2006 11.7 90.3006 11.7C91.4006 11.7 91.8006 11.1 91.8006 10.3V4.9H93.4006V10.4C93.4006 12.2 92.1006 13.3 90.2006 13.3C88.3006 13.3 87.1006 12.2 87.1006 10.4H87.2006Z" fill="white"/>
<path d="M99.7004 10.3H98.5004V13.2H96.9004V5H100.2C101.7 5 102.9 6.2 102.9 7.7C102.9 9.2 102.3 9.7 101.3 10.1L103.1 13.2H101.3L99.6004 10.3H99.7004ZM98.5004 8.8H100.2C100.8 8.8 101.3 8.3 101.3 7.6C101.3 6.9 100.8 6.4 100.2 6.4H98.5004V8.8Z" fill="white"/>
<path d="M111 11.6V13.2H105.9V5H110.9V6.6H107.5V8.4H110.6V9.9H107.5V11.7H111V11.6Z" fill="white"/>
</svg>
